<svg width="35" height="24" viewBox="0 0 35 24" fill="none" xmlns="http://www.w3.org/2000/svg">
<path d="M11.9795 20.6182C11.9795 20.2909 11.7592 20.0727 11.4289 20.0727H1.84918C1.51885 20.0727 1.29863 20.2909 1.29863 20.6182C1.29863 20.9455 1.51885 21.1636 1.84918 21.1636H11.4289C11.7592 21.1636 11.9795 20.8909 11.9795 20.6182Z" fill="white"/>
<path d="M4.05142 22.8H2.9503C2.61997 22.8 2.39974 23.0182 2.39974 23.3454C2.39974 23.6727 2.61997 23.8909 2.9503 23.8909H4.05142C4.38175 23.8909 4.60198 23.6727 4.60198 23.3454C4.60198 23.0182 4.38175 22.8 4.05142 22.8Z" fill="white"/>
<path d="M6.63904 17.8909C6.63904 17.5636 6.41882 17.3455 6.08848 17.3455H0.748068C0.417733 17.3455 0.19751 17.5636 0.19751 17.8909C0.19751 18.2182 0.417733 18.4364 0.748068 18.4364H6.08848C6.41882 18.4364 6.63904 18.1636 6.63904 17.8909Z" fill="white"/>
<path fill-rule="evenodd" clip-rule="evenodd" d="M34.0018 18.8182C33.8366 18.4909 33.5063 18.2182 33.176 18.0545L28.9917 16.4727L27.285 15.8727C26.7895 15.6545 26.349 15.3273 26.0738 14.8909L24.6423 12.5455C24.9176 12.4909 25.0828 12.2727 25.0828 12C25.0828 11.6727 24.8625 11.4545 24.5322 11.4545H23.9816L23.321 10.3636C23.5962 10.3091 23.7614 10.0909 23.7614 9.81818C23.7614 9.49091 23.5412 9.27273 23.2109 9.27273H22.6603L22.1097 8.4C22.33 8.34545 22.4951 8.12727 22.4951 7.90909C22.4951 7.58182 22.2749 7.36364 21.9446 7.36364H21.4491L20.7333 6.21818C20.7333 6.21818 20.7333 6.16364 20.6783 6.16364C20.0176 5.4 19.1367 5.01818 18.2008 5.12727C17.3749 5.23636 16.7143 5.72727 16.439 6.32727C16.3839 6.49091 16.3839 6.65454 16.494 6.81818L21.0637 14.5636C21.1187 14.6727 21.2288 14.7818 21.339 14.7818L26.9546 16.9091H27.0097L28.6614 17.5091L32.7906 19.0909C32.9007 19.1455 33.0108 19.2 33.0658 19.3636C33.2861 19.8 33.2861 20.2364 33.0108 20.6727H24.0367C23.4861 20.6727 22.9356 20.5091 22.4951 20.1818L7.13455 8.89091C7.13455 8.89091 7.35477 8.78182 7.63005 8.4C7.90533 8.01818 8.01544 7.52727 8.01544 7.03636L7.51994 2.45454L8.18061 1.41818C8.34577 1.2 8.67611 1.14545 8.89633 1.30909C8.90846 1.3211 8.92325 1.33517 8.94089 1.35195L8.94091 1.35196C9.16357 1.56371 9.83941 2.20642 11.3188 4.58182C12.1446 5.78182 13.466 6.65454 14.9525 6.87273C15.2278 6.92727 15.5581 6.70909 15.6131 6.43636C15.6682 6.16363 15.448 5.83636 15.1727 5.78182C14.0165 5.56364 12.9154 4.90909 12.2547 3.92727C10.3278 0.981817 9.77723 0.545453 9.557 0.381817C8.84128 -0.109092 7.85027 0.0545443 7.29971 0.763635L3.94131 6.05454C3.72108 6.38182 3.66603 6.76364 3.72108 7.14545C3.39075 7.25454 3.06041 7.41818 2.89525 7.74545L2.01435 9.10909C1.51885 9.81818 1.73907 10.8 2.4548 11.2909C2.88266 11.6206 3.72103 12.1537 4.93445 12.9252L4.93549 12.9258C5.12701 13.0476 5.32787 13.1753 5.53793 13.3091C5.64804 13.3636 5.75815 13.4182 5.81321 13.4182C5.97837 13.4182 6.14354 13.3091 6.25365 13.1455C6.41882 12.8727 6.36376 12.5455 6.08849 12.3818C5.61614 12.0698 5.18827 11.7909 4.80841 11.5433L4.80834 11.5432C3.99276 11.0115 3.39846 10.6241 3.06041 10.3636C2.84019 10.2 2.78513 9.92727 2.9503 9.65454L3.77614 8.4C3.94131 8.18182 4.27164 8.12727 4.49187 8.29091L21.7794 21.0545C22.4401 21.5455 23.2109 21.7636 23.9816 21.7636H31.5793C30.4232 22.3091 28.8265 22.8 27.4502 22.8H25.5232H23.9266C22.9906 22.8 22.0547 22.5273 21.2839 22.0364C18.0907 20.0182 12.1446 16.2545 7.79522 13.4727C7.51994 13.3091 7.1896 13.3636 7.02443 13.6364C6.85927 13.9091 6.91432 14.2364 7.1896 14.4C9.97996 16.1951 13.4382 18.392 16.4025 20.2751C17.9418 21.2529 19.3478 22.1461 20.4581 22.8545H6.25365C5.92332 22.8545 5.70309 23.0727 5.70309 23.4C5.70309 23.7273 5.92332 23.9455 6.25365 23.9455H23.9266H25.5232H27.3951C29.6524 23.9455 32.9007 22.7455 33.7265 21.6C34.4422 20.6182 34.4973 19.6909 34.0018 18.8182ZM21.8345 13.9091L17.5401 6.65454C17.7053 6.49091 17.9805 6.32727 18.3109 6.27273C18.6412 6.21818 19.2468 6.27273 19.7974 6.87273L20.1277 7.41818H19.6322C19.3019 7.41818 19.0817 7.63636 19.0817 7.96364C19.0817 8.29091 19.3019 8.50909 19.6322 8.50909H20.7884L21.339 9.38182H20.8985C20.5682 9.38182 20.3479 9.6 20.3479 9.92727C20.3479 10.2545 20.5682 10.4727 20.8985 10.4727H21.9996L22.6603 11.5091H22.2198C21.8895 11.5091 21.6693 11.7273 21.6693 12.0545C21.6693 12.3818 21.8895 12.6 22.2198 12.6H23.321L24.8625 15L21.8345 13.9091ZM6.58399 3.98182L4.87726 6.65454C4.76714 6.87273 4.8222 7.14545 5.15254 7.41818C5.64804 7.8 5.92332 7.96364 5.92332 7.96364C6.38152 8.31671 6.60433 7.97015 6.72235 7.78658C6.73195 7.77163 6.74087 7.75777 6.74916 7.74545C6.85927 7.58182 6.91432 7.36364 6.91432 7.14545L6.58399 3.98182Z" fill="white"/>
</svg>
